<svg width="30" height="29" viewBox="0 0 30 29" fill="none" xmlns="http://www.w3.org/2000/svg">
<rect x="15.6145" y="21.002" width="1.26076" height="14" transform="rotate(180 15.6145 21.002)" fill="black"/>
<path fill-rule="evenodd" clip-rule="evenodd" d="M18.7502 3.81377C18.7502 1.71048 17.0692 0.00156355 15.0003 0.00156355C12.9313 0.00156355 11.2503 1.71048 11.2503 3.81377C11.2503 5.91706 12.9313 7.62598 15.0003 7.62598C17.0692 7.62598 18.7502 5.91706 18.7502 3.81377ZM17.4895 3.84663C17.4895 5.22692 16.3903 6.37715 15.0003 6.37715C13.6102 6.37715 12.5111 5.22692 12.5111 3.81377C12.5111 2.43349 13.6425 1.28325 15.0003 1.28325C16.358 1.28325 17.4895 2.46635 17.4895 3.84663Z" fill="black"/>
<path fill-rule="evenodd" clip-rule="evenodd" d="M30 3.81377C30 1.71048 28.319 0.00156355 26.2501 0.00156355C24.1812 0.00156355 22.5001 1.71048 22.5001 3.81377C22.5001 5.91706 24.1812 7.62598 26.2501 7.62598C28.319 7.62598 30 5.91706 30 3.81377ZM28.7393 3.84663C28.7393 5.22692 27.6402 6.37715 26.2501 6.37715C24.8923 6.37715 23.7609 5.22692 23.7609 3.81377C23.7609 2.43349 24.8923 1.28325 26.2501 1.28325C27.6078 1.28325 28.7393 2.46635 28.7393 3.84663Z" fill="black"/>
<path fill-rule="evenodd" clip-rule="evenodd" d="M18.7502 24.1897C18.7502 22.0865 17.0692 20.3775 15.0003 20.3775C12.9313 20.3775 11.2503 22.0865 11.2503 24.1897C11.2503 26.293 12.9313 28.002 15.0003 28.002C17.0692 28.002 18.7502 26.293 18.7502 24.1897ZM17.4895 24.1897C17.4895 25.57 16.3903 26.7203 15.0003 26.7203C13.6102 26.7203 12.5111 25.57 12.5111 24.1897C12.5111 22.8095 13.6425 21.6592 15.0003 21.6592C16.358 21.6592 17.4895 22.8095 17.4895 24.1897Z" fill="black"/>
<path d="M25.6359 7.00156H26.8643V10.1894C26.8643 12.6541 24.8923 14.626 22.5001 14.626H15.0002V13.3772H22.5001C24.2135 13.3772 25.6359 11.964 25.6359 10.1894V7.00156Z" fill="black"/>
<path fill-rule="evenodd" clip-rule="evenodd" d="M7.50037 3.81377C7.50037 1.71048 5.81936 0.00156355 3.75042 0.00156355C1.68149 0.00156355 -0.0318484 1.71048 0.000478745 3.81377C0.000478745 5.91706 1.68149 7.62598 3.75042 7.62598C5.81936 7.62598 7.50037 5.91706 7.50037 3.81377ZM6.23961 3.84663C6.23961 5.22692 5.14049 6.37715 3.75042 6.37715C2.36036 6.37715 1.22891 5.22692 1.26124 3.81377C1.26124 2.43349 2.36036 1.28325 3.75042 1.28325C5.10816 1.28325 6.23961 2.46635 6.23961 3.84663Z" fill="black"/>
<path d="M3.10387 7.0019H4.36463V10.1897C4.36463 11.9315 5.75469 13.3775 7.50036 13.3775H15.0002V14.6592H7.50036C5.07582 14.6592 3.1362 12.6545 3.1362 10.2226L3.10387 7.0019Z" fill="black"/>
</svg>
