<svg width="16" height="16" viewBox="0 0 16 16" fill="none" xmlns="http://www.w3.org/2000/svg">
<path fill-rule="evenodd" clip-rule="evenodd" d="M0 8C0 12.419 3.58095 16 8 16C12.419 16 16 12.419 16 8C16 3.58095 12.419 0 8 0C3.58095 0 0 3.58095 0 8ZM0.761963 8.00003C0.761963 4.00003 4.00006 0.761936 8.00006 0.761936C12.0001 0.761936 15.2382 4.00003 15.2382 8.00003C15.2382 12 12.0001 15.2381 8.00006 15.2381C4.00006 15.2381 0.761963 12 0.761963 8.00003Z" fill="#EB1C1C"/>
<path d="M8.53325 8.00016L10.5523 5.98112C10.7047 5.82873 10.7047 5.60016 10.5523 5.44778C10.3999 5.2954 10.1713 5.2954 10.019 5.44778L7.99992 7.46683L5.98087 5.44778C5.82849 5.2954 5.59992 5.2954 5.44754 5.44778C5.29516 5.60016 5.29516 5.82873 5.44754 5.98112L7.46659 8.00016L5.44754 10.0192C5.29516 10.1716 5.29516 10.4002 5.44754 10.5525C5.52373 10.6287 5.61897 10.6668 5.7142 10.6668C5.80944 10.6668 5.90468 10.6287 5.98087 10.5525L7.99992 8.5335L10.019 10.5525C10.0952 10.6287 10.1904 10.6668 10.2856 10.6668C10.3809 10.6668 10.4761 10.6287 10.5523 10.5525C10.7047 10.4002 10.7047 10.1716 10.5523 10.0192L8.53325 8.00016Z" fill="#EB1C1C"/>
</svg>
