<svg width="30" height="30" viewBox="0 0 30 30" fill="none" xmlns="http://www.w3.org/2000/svg">
<path fill-rule="evenodd" clip-rule="evenodd" d="M22.1182 3.55076C22.322 1.533 24.0213 -0.00203614 26.049 2.02727e-06C28.0767 -0.00203614 29.776 1.533 29.9798 3.55076C30.1836 5.56852 28.8255 7.41243 26.8384 7.816V13.4214C26.8369 14.7289 25.7775 15.7884 24.4703 15.7899H18.8643C18.4892 17.6278 16.8727 18.948 14.9972 18.948C13.1217 18.948 11.5052 17.6278 11.1302 15.7899H5.52573C5.09014 15.7908 4.73724 16.1437 4.73637 16.5794V22.1848C6.72157 22.5901 8.07746 24.433 7.87381 26.4493C7.67017 28.4655 5.97315 30 3.94701 30C1.92087 30 0.223856 28.4655 0.020211 26.4493C-0.183434 24.433 1.17245 22.5901 3.15765 22.1848V16.5794C3.15913 15.2719 4.21849 14.2124 5.52573 14.2109H11.1317C11.5068 12.373 13.1233 11.0528 14.9988 11.0528C16.8743 11.0528 18.4908 12.373 18.8659 14.2109H24.4703C24.9059 14.21 25.2588 13.8571 25.2597 13.4214V7.816C23.2725 7.41243 21.9145 5.56852 22.1182 3.55076ZM3.94701 28.4218C5.25486 28.4218 6.31508 27.3614 6.31508 26.0533C6.31361 24.7459 5.25425 23.6863 3.94701 23.6848C2.63916 23.6848 1.57894 24.7453 1.57894 26.0533C1.57894 27.3614 2.63916 28.4218 3.94701 28.4218ZM14.998 17.3689C13.6902 17.3689 12.6299 16.3085 12.6299 15.0004C12.6299 13.6923 13.6902 12.6319 14.998 12.6319C16.3059 12.6319 17.3661 13.6923 17.3661 15.0004C17.3646 16.3079 16.3053 17.3674 14.998 17.3689ZM23.6809 3.94748C23.6809 5.25555 24.7412 6.31596 26.049 6.31596C27.3563 6.31448 28.4156 5.25494 28.4171 3.94748C28.4171 2.6394 27.3569 1.57899 26.049 1.57899C24.7412 1.57899 23.6809 2.6394 23.6809 3.94748Z" fill="black"/>
</svg>
