<svg width="15" height="15" viewBox="0 0 15 15" fill="none" xmlns="http://www.w3.org/2000/svg">
<path d="M10.1952 7.03194H7.96864V4.80537C7.96864 4.74092 7.9159 4.68819 7.85145 4.68819H7.14832C7.08387 4.68819 7.03114 4.74092 7.03114 4.80537V7.03194H4.80457C4.74012 7.03194 4.68739 7.08467 4.68739 7.14912V7.85225C4.68739 7.9167 4.74012 7.96944 4.80457 7.96944H7.03114V10.196C7.03114 10.2605 7.08387 10.3132 7.14832 10.3132H7.85145C7.9159 10.3132 7.96864 10.2605 7.96864 10.196V7.96944H10.1952C10.2597 7.96944 10.3124 7.9167 10.3124 7.85225V7.14912C10.3124 7.08467 10.2597 7.03194 10.1952 7.03194Z" fill="#039FD9"/>
<path d="M7.5 0.9375C3.87598 0.9375 0.9375 3.87598 0.9375 7.5C0.9375 11.124 3.87598 14.0625 7.5 14.0625C11.124 14.0625 14.0625 11.124 14.0625 7.5C14.0625 3.87598 11.124 0.9375 7.5 0.9375ZM7.5 12.9492C4.49121 12.9492 2.05078 10.5088 2.05078 7.5C2.05078 4.49121 4.49121 2.05078 7.5 2.05078C10.5088 2.05078 12.9492 4.49121 12.9492 7.5C12.9492 10.5088 10.5088 12.9492 7.5 12.9492Z" fill="#039FD9"/>
</svg>
