<svg width="19" height="30" viewBox="0 0 19 30" fill="none" xmlns="http://www.w3.org/2000/svg">
<path d="M3.34525 2.49095e-05C3.12688 0.0190817 2.92136 0.150625 2.81258 0.340934L0.0853089 5.11366C0.0279311 5.21731 -0.00177021 5.33611 8.16089e-05 5.45457V29.3182C0.0001082 29.6752 0.324905 30 0.6819 30H17.7274C18.0843 30 18.4091 29.6752 18.4092 29.3182V5.45457C18.411 5.33611 18.3813 5.21731 18.3239 5.11366L15.5967 0.340934C15.4766 0.133051 15.2401 -0.00210918 15.0001 2.49095e-05C11.1167 2.49095e-05 7.224 2.49095e-05 3.34525 2.49095e-05ZM3.814 1.36366H14.5953L16.5448 4.77275H1.86443L3.814 1.36366ZM1.36372 6.13639H17.0455V28.6364H1.36372V6.13639ZM4.36798 9.54548C4.0109 9.56211 3.70117 9.90219 3.71791 10.2593C3.73465 10.6163 4.07483 10.926 4.4319 10.9091H13.9774C14.3376 10.9142 14.6689 10.5875 14.6689 10.2273C14.6689 9.86705 14.3376 9.54038 13.9774 9.54548C10.7759 9.54548 7.56478 9.54548 4.36798 9.54548ZM4.36798 13.9773C4.01097 13.994 3.70138 14.3341 3.71811 14.6911C3.73485 15.0481 4.0749 15.3577 4.4319 15.341H13.9774C14.3374 15.3457 14.6683 15.0191 14.6683 14.6591C14.6683 14.2991 14.3374 13.9725 13.9774 13.9773C10.7759 13.9773 7.56478 13.9773 4.36798 13.9773ZM9.20463 21.1364C7.89476 21.1364 6.81826 22.2129 6.81826 23.5227C6.81826 24.8326 7.89474 25.9091 9.20463 25.9091C10.5145 25.9091 11.591 24.8326 11.591 23.5227C11.591 22.2129 10.5145 21.1364 9.20463 21.1364ZM9.20463 22.5C9.77755 22.5 10.2274 22.9498 10.2274 23.5227C10.2274 24.0957 9.77753 24.5455 9.20463 24.5455C8.63171 24.5455 8.1819 24.0957 8.1819 23.5227C8.1819 22.9498 8.6317 22.5 9.20463 22.5Z" fill="black"/>
</svg>
