<svg width="16" height="16" viewBox="0 0 16 16" fill="none" xmlns="http://www.w3.org/2000/svg">
<path fill-rule="evenodd" clip-rule="evenodd" d="M0 8C0 12.4167 3.58333 16 8 16C12.4167 16 16 12.4167 16 8C16 3.58333 12.4167 0 8 0C3.58333 0 0 3.58333 0 8ZM0.883301 7.99991C0.883301 4.08325 4.0833 0.883247 7.99997 0.883247C11.9166 0.883247 15.1166 4.08325 15.1166 7.99991C15.1166 11.9166 11.9166 15.1166 7.99997 15.1166C4.0833 15.1166 0.883301 11.9166 0.883301 7.99991Z" fill="#13AE02"/>
<path d="M7.13328 10.1667C7.01662 10.1667 6.89995 10.1167 6.81662 10.0333L5.11662 8.33332C4.94995 8.16666 4.91662 7.88332 5.06662 7.71666C5.23328 7.51666 5.53328 7.49999 5.71662 7.68332L7.13328 9.09999C7.13328 9.09999 7.13328 9.09999 7.14995 9.09999L10.3 5.94999C10.4666 5.78332 10.7333 5.74999 10.9166 5.89999C11.1166 6.06666 11.1333 6.36666 10.95 6.54999L7.44995 10.05C7.36662 10.1333 7.24995 10.1667 7.13328 10.1667Z" fill="#13AE02"/>
</svg>
