<svg width="30" height="30" viewBox="0 0 30 30" fill="none" xmlns="http://www.w3.org/2000/svg">
<path fill-rule="evenodd" clip-rule="evenodd" d="M15 0C13.527 0 12.3214 1.20557 12.3214 2.67857C12.3214 3.96745 13.2467 5.04975 14.4643 5.30064V9.69517C13.4429 9.79729 12.4445 10.1653 11.6078 10.8503L8.5233 7.76367C9.20682 6.72534 9.09147 5.30597 8.18011 4.39453C7.13855 3.353 5.434 3.353 4.39244 4.39453C3.35088 5.43617 3.35088 7.14066 4.39244 8.1822C5.3038 9.09354 6.72533 9.20471 7.76367 8.5212L10.8503 11.6078C10.1656 12.4442 9.79755 13.4432 9.69517 14.4643H5.30273C5.05339 13.2448 3.96885 12.3214 2.67857 12.3214C1.20558 12.3214 0 13.527 0 15C0 16.473 1.20558 17.6786 2.67857 17.6786C3.96744 17.6786 5.05184 16.7533 5.30273 15.5357H9.69308C9.79482 16.5581 10.1644 17.5571 10.8503 18.3943L7.76576 21.4788C6.72709 20.7925 5.3049 20.9075 4.39244 21.8199C3.35088 22.8614 3.35088 24.566 4.39244 25.6076C5.434 26.6492 7.13855 26.6492 8.18011 25.6076C9.09147 24.6962 9.20682 23.2767 8.5233 22.2384C8.52301 22.238 8.52359 22.2368 8.5233 22.2363L11.6057 19.1539C12.4425 19.8385 13.4427 20.2052 14.4643 20.3069V24.6973H14.4622C13.2446 24.9482 12.3214 26.0326 12.3214 27.3214C12.3214 28.7944 13.527 30 15 30C16.473 30 17.6786 28.7944 17.6786 27.3214C17.6786 26.0326 16.7533 24.9482 15.5357 24.6973V20.3069C16.5567 20.2046 17.556 19.8362 18.3922 19.1518L21.4767 22.2363V22.2384C20.7932 23.2767 20.9064 24.6962 21.8178 25.6076C22.8594 26.6492 24.5639 26.6492 25.6055 25.6076C26.647 24.566 26.647 22.8614 25.6055 21.8199C24.6941 20.9086 23.2726 20.7953 22.2342 21.4788L19.1497 18.3943C19.8348 17.5572 20.203 16.5578 20.3048 15.5357H24.6973V15.5378C24.9482 16.7554 26.0326 17.6786 27.3214 17.6786C28.7944 17.6786 30 16.473 30 15C30 13.527 28.7944 12.3214 27.3214 12.3214C26.0311 12.3214 24.9466 13.2448 24.6973 14.4643H20.3048C20.2026 13.4433 19.8341 12.444 19.1497 11.6078L22.2342 8.5233H22.2363C23.2747 9.20681 24.6941 9.09354 25.6055 8.1822C26.647 7.14066 26.647 5.43617 25.6055 4.39453C24.5639 3.353 22.8594 3.353 21.8178 4.39453C20.9064 5.30597 20.7932 6.72744 21.4767 7.76576L18.3922 10.8503C17.5558 10.1652 16.5567 9.79719 15.5357 9.69517V5.30064H15.5378C16.7554 5.04975 17.6786 3.96745 17.6786 2.67857C17.6786 1.20557 16.473 0 15 0ZM15 1.07143C15.8939 1.07143 16.6071 1.78468 16.6071 2.67857C16.6071 3.57257 15.8939 4.28571 15 4.28571C14.1061 4.28571 13.3929 3.57257 13.3929 2.67857C13.3929 1.78468 14.1061 1.07143 15 1.07143ZM6.28627 4.67704C6.69645 4.67704 7.10651 4.83599 7.42257 5.15206C8.05469 5.7841 8.05469 6.79252 7.42257 7.42466C6.79046 8.0567 5.78209 8.0567 5.14997 7.42466C4.51786 6.79252 4.51786 5.7841 5.14997 5.15206C5.46603 4.83599 5.87609 4.67704 6.28627 4.67704ZM23.7116 4.67704C24.1218 4.67704 24.5319 4.83599 24.8479 5.15206C25.48 5.7841 25.48 6.79252 24.8479 7.42466C24.2158 8.0567 23.2075 8.0567 22.5753 7.42466C21.9432 6.79252 21.9432 5.7841 22.5753 5.15206C22.8914 4.83599 23.3015 4.67704 23.7116 4.67704ZM15 10.7059C16.0964 10.7057 17.1924 11.1258 18.0322 11.9657C19.7118 13.6454 19.7118 16.3525 18.0322 18.0322C16.3527 19.7119 13.6452 19.712 11.9657 18.0322C10.2861 16.3525 10.2882 13.6454 11.9678 11.9657C12.8076 11.1266 13.9036 10.7061 15 10.7059ZM2.67857 13.3929C3.57252 13.3929 4.28571 14.1061 4.28571 15C4.28571 15.894 3.57252 16.6071 2.67857 16.6071C1.78463 16.6071 1.07143 15.894 1.07143 15C1.07143 14.1061 1.78463 13.3929 2.67857 13.3929ZM27.3214 13.3929C28.2154 13.3929 28.9286 14.1061 28.9286 15C28.9286 15.894 28.2154 16.6071 27.3214 16.6071C26.4275 16.6071 25.7143 15.894 25.7143 15C25.7143 14.1061 26.4275 13.3929 27.3214 13.3929ZM6.28627 22.1024C6.69645 22.1024 7.10651 22.2614 7.42257 22.5774C8.05469 23.2096 8.05469 24.218 7.42257 24.85C6.79046 25.4822 5.78209 25.4822 5.14997 24.85C4.51786 24.218 4.51786 23.2096 5.14997 22.5774C5.46603 22.2614 5.87609 22.1024 6.28627 22.1024ZM23.7116 22.1024C24.1218 22.1024 24.5319 22.2614 24.8479 22.5774C25.4801 23.2096 25.4801 24.218 24.8479 24.85C24.2158 25.4822 23.2075 25.4822 22.5753 24.85C21.9432 24.218 21.9432 23.2096 22.5753 22.5774C22.8914 22.2614 23.3015 22.1024 23.7116 22.1024ZM15 25.7143C15.8939 25.7143 16.6071 26.4275 16.6071 27.3214C16.6071 28.2154 15.8939 28.9286 15 28.9286C14.1061 28.9286 13.3929 28.2154 13.3929 27.3214C13.3929 26.4275 14.1061 25.7143 15 25.7143Z" fill="black"/>
</svg>
