<svg width="30" height="22" viewBox="0 0 30 22" fill="none" xmlns="http://www.w3.org/2000/svg">
<path d="M26.5195 7.11174V12.9275C26.5195 16.151 23.9274 18.7432 20.7038 18.7432H10.3352V17.4471H20.7038C23.1962 17.4471 25.2234 15.4199 25.2234 12.9275V7.11174H26.5195Z" fill="black"/>
<path d="M7.77643 18.1118C7.77643 20.2387 6.04834 22 3.88822 22C1.7281 22 0 20.2719 0 18.1118C0 15.9517 1.7281 14.2236 3.88822 14.2236C6.04834 14.2236 7.77643 15.9849 7.77643 18.1118ZM1.29607 18.1118C1.29607 19.5408 2.45921 20.7039 3.88822 20.7039C5.31722 20.7039 6.48036 19.5408 6.48036 18.1118C6.48036 16.6828 5.31722 15.5196 3.88822 15.5196C2.45921 15.5196 1.29607 16.6828 1.29607 18.1118Z" fill="black"/>
<path d="M29.7431 3.88815C29.7431 6.01504 28.015 7.77637 25.8549 7.77637C23.728 7.77637 21.9666 6.04827 21.9666 3.88815C21.9666 1.76126 23.6947 -6.7234e-05 25.8549 -6.7234e-05C28.015 -6.7234e-05 29.7431 1.76126 29.7431 3.88815ZM23.2627 3.88815C23.2627 5.31715 24.4259 6.4803 25.8549 6.4803C27.2839 6.4803 28.447 5.31715 28.447 3.88815C28.447 2.45915 27.2839 1.29601 25.8549 1.29601C24.4259 1.29601 23.2627 2.45915 23.2627 3.88815Z" fill="black"/>
<path d="M16.1511 7.11174V12.9275C16.1511 16.151 13.5589 18.7432 10.3354 18.7432H7.14502V17.4471H10.3354C12.8278 17.4471 14.855 15.4199 14.855 12.9275V7.11174H16.1511Z" fill="black"/>
<path d="M19.3746 3.88815C19.3746 6.01504 17.6465 7.77637 15.4864 7.77637C13.3263 7.77637 11.6314 6.01504 11.6314 3.88815C11.6314 1.76126 13.3595 -6.7234e-05 15.5196 -6.7234e-05C17.6797 -6.7234e-05 19.3746 1.76126 19.3746 3.88815ZM12.8942 3.88815C12.8942 5.31715 14.0574 6.4803 15.4864 6.4803C16.9154 6.4803 18.0785 5.31715 18.0785 3.88815C18.0785 2.45915 16.9154 1.29601 15.4864 1.29601C14.0574 1.29601 12.8942 2.45915 12.8942 3.88815Z" fill="black"/>
</svg>
