<svg width="17" height="16" viewBox="0 0 17 16" fill="none" xmlns="http://www.w3.org/2000/svg">
<path fill-rule="evenodd" clip-rule="evenodd" d="M0 8C0 3.5907 3.62339 0 8.07283 0C12.5223 0 16.1457 3.5907 16.1457 8C16.1457 12.4093 12.5223 16 8.07283 16C3.62339 16 0 12.4093 0 8ZM0.750961 8.00014C0.750961 12.0001 4.03641 15.2559 8.07283 15.2559C12.1092 15.2559 15.3947 12.0001 15.3947 8.00014C15.3947 4.00014 12.1092 0.744324 8.07283 0.744324C4.03641 0.744324 0.750961 4.00014 0.750961 8.00014Z" fill="white"/>
<path d="M11.4522 7.62814H8.4484V4.65139C8.4484 4.44674 8.27943 4.2793 8.07292 4.2793C7.86641 4.2793 7.69744 4.44674 7.69744 4.65139V7.62814H4.6936C4.48708 7.62814 4.31812 7.79558 4.31812 8.00023C4.31812 8.20488 4.48708 8.37232 4.6936 8.37232H7.69744V11.3491C7.69744 11.5537 7.86641 11.7212 8.07292 11.7212C8.27943 11.7212 8.4484 11.5537 8.4484 11.3491V8.37232H11.4522C11.6588 8.37232 11.8277 8.20488 11.8277 8.00023C11.8277 7.79558 11.6588 7.62814 11.4522 7.62814Z" fill="white"/>
</svg>
