<svg width="17" height="16" viewBox="0 0 17 16" fill="none" xmlns="http://www.w3.org/2000/svg">
<path fill-rule="evenodd" clip-rule="evenodd" d="M1.24069 13.3973H14.905C15.589 13.3973 16.1457 12.7072 16.1457 11.8593V1.53796C16.1457 0.690078 15.589 0 14.905 0H1.24069C0.556617 0 0 0.690078 0 1.53796V11.8593C0 12.7072 0.556617 13.3973 1.24069 13.3973ZM0.672741 1.53772C0.672741 1.12123 0.92748 0.782303 1.24069 0.782303H14.905C15.2182 0.782303 15.4729 1.12123 15.4729 1.53772V11.8591C15.4729 12.2756 15.2182 12.6145 14.905 12.6145H1.24069C0.92748 12.6145 0.672741 12.2756 0.672741 11.8591V1.53772Z" fill="white"/>
<path d="M10.848 16.0008H5.12201C4.93625 16.0008 4.78564 15.8258 4.78564 15.6095C4.78564 15.3933 4.93625 15.2183 5.12201 15.2183H10.848C11.0337 15.2183 11.1844 15.3933 11.1844 15.6095C11.1844 15.8258 11.0337 16.0008 10.848 16.0008Z" fill="white"/>
<path d="M5.74165 15.9996C5.72489 15.9996 5.70814 15.9981 5.69122 15.9954C5.50744 15.9633 5.38097 15.7639 5.40856 15.5503L5.74493 12.9474C5.77236 12.7334 5.94465 12.5897 6.12745 12.6184C6.31123 12.6505 6.4377 12.8499 6.41011 13.0635L6.07374 15.6664C6.04878 15.8605 5.90523 15.9996 5.74165 15.9996Z" fill="white"/>
<path d="M10.2286 15.9996C10.0651 15.9996 9.92151 15.8605 9.89654 15.6664L9.56018 13.0635C9.53258 12.8499 9.65905 12.6505 9.84284 12.6184C10.0251 12.5897 10.1979 12.7334 10.2254 12.9474L10.5617 15.5503C10.5893 15.7639 10.4628 15.9633 10.2791 15.9954C10.2621 15.9981 10.2454 15.9996 10.2286 15.9996Z" fill="white"/>
<path d="M15.8093 9.62141H0.336368C0.15061 9.62141 0 9.44641 0 9.23014C0 9.01387 0.15061 8.83887 0.336368 8.83887H15.8093C15.9951 8.83887 16.1457 9.01387 16.1457 9.23014C16.1457 9.44641 15.9951 9.62141 15.8093 9.62141Z" fill="white"/>
</svg>
