<svg width="18" height="18" viewBox="0 0 18 18" fill="none" xmlns="http://www.w3.org/2000/svg">
<path fill-rule="evenodd" clip-rule="evenodd" d="M16.0399 7.2402H16.6266C17.2746 7.2402 17.7999 7.76551 17.7999 8.41353V16.6269C17.7999 17.2749 17.2746 17.8002 16.6266 17.8002H1.37328C0.72527 17.8002 0.199951 17.2749 0.199951 16.6269V8.41353C0.199951 7.76551 0.72527 7.2402 1.37328 7.2402H1.95995V4.60019C1.96028 4.33906 2.02102 4.08155 2.13742 3.8478C2.21343 3.69557 2.25309 3.52778 2.25328 3.35764V1.0802C2.25328 0.594185 2.64727 0.200195 3.13328 0.200195C3.61929 0.200195 4.01328 0.594185 4.01328 1.0802V3.35764C4.01348 3.52778 4.05314 3.69557 4.12915 3.8478C4.24555 4.08155 4.30629 4.33906 4.30662 4.60019V7.2402H7.82662V4.60019C7.82695 4.33906 7.88769 4.08155 8.00408 3.8478C8.0801 3.69557 8.11976 3.52778 8.11995 3.35764V1.0802C8.11995 0.594185 8.51394 0.200195 8.99995 0.200195C9.48596 0.200195 9.87995 0.594185 9.87995 1.0802V3.35764C9.8806 3.5279 9.92076 3.69569 9.99728 3.8478C10.1132 4.08167 10.1734 4.33918 10.1733 4.60019V7.2402H13.6933V4.60019C13.6932 4.33918 13.7534 4.08167 13.8693 3.8478C13.9458 3.69569 13.986 3.5279 13.9866 3.35764V1.0802C13.9866 0.594185 14.3806 0.200195 14.8666 0.200195C15.3526 0.200195 15.7466 0.594185 15.7466 1.0802V3.35764C15.7473 3.5279 15.7874 3.69569 15.8639 3.8478C15.9798 4.08167 16.0401 4.33918 16.0399 4.60019V7.2402ZM14.3973 4.11002C14.3207 4.2621 14.2805 4.42991 14.28 4.60018V7.24018H15.4533V4.60018C15.4527 4.42991 15.4125 4.2621 15.336 4.11002C15.2201 3.87615 15.1598 3.61864 15.16 3.35762V1.08018C15.16 0.918179 15.0286 0.786849 14.8666 0.786849C14.7046 0.786849 14.5733 0.918179 14.5733 1.08018V3.35762C14.5734 3.61864 14.5132 3.87615 14.3973 4.11002ZM8.41329 4.60018C8.4134 4.43003 8.45307 4.26222 8.52915 4.11002C8.64555 3.87627 8.70629 3.61875 8.70662 3.35762V1.08018C8.70662 0.918179 8.83795 0.786849 8.99995 0.786849C9.16196 0.786849 9.29329 0.918179 9.29329 1.08018V3.35762C9.29316 3.61864 9.3534 3.87615 9.46929 4.11002C9.54588 4.2621 9.58605 4.42991 9.58662 4.60018V7.24018H8.41329V4.60018ZM2.66248 4.11002C2.5864 4.26222 2.54674 4.43003 2.54662 4.60018V7.24018H3.71995V4.60018C3.71983 4.43003 3.68017 4.26222 3.60408 4.11002C3.48769 3.87627 3.42695 3.61875 3.42662 3.35762V1.08018C3.42662 0.918179 3.29529 0.786849 3.13328 0.786849C2.97128 0.786849 2.83995 0.918179 2.83995 1.08018V3.35762C2.83962 3.61875 2.77888 3.87627 2.66248 4.11002ZM17.2133 16.6269C17.2133 16.9509 16.9506 17.2136 16.6266 17.2136H1.37329C1.04928 17.2136 0.786619 16.9509 0.786619 16.6269V14.8669C0.786619 14.5429 1.04928 14.2803 1.37329 14.2803H16.6266C16.9506 14.2803 17.2133 14.5429 17.2133 14.8669V16.6269ZM16.6266 13.6936C16.8332 13.6948 17.0357 13.7511 17.2133 13.8566V8.41356C17.2133 8.08955 16.9506 7.82689 16.6266 7.82689H1.37329C1.04928 7.82689 0.786619 8.08955 0.786619 8.41356V13.8566C0.964187 13.7511 1.1667 13.6948 1.37329 13.6936H16.6266Z" fill="white"/>
<path fill-rule="evenodd" clip-rule="evenodd" d="M8.11987 15.7472C8.11987 15.2612 8.51386 14.8672 8.99987 14.8672C9.48588 14.8672 9.87987 15.2612 9.87987 15.7472C9.87987 16.2332 9.48588 16.6272 8.99987 16.6272C8.51386 16.6272 8.11987 16.2332 8.11987 15.7472ZM8.70654 15.7472C8.70654 15.9092 8.83787 16.0405 8.99987 16.0405C9.16188 16.0405 9.29321 15.9092 9.29321 15.7472C9.29321 15.5852 9.16188 15.4538 8.99987 15.4538C8.83787 15.4538 8.70654 15.5852 8.70654 15.7472Z" fill="white"/>
<path fill-rule="evenodd" clip-rule="evenodd" d="M10.4666 15.7472C10.4666 15.2612 10.8605 14.8672 11.3466 14.8672C11.8326 14.8672 12.2266 15.2612 12.2266 15.7472C12.2266 16.2332 11.8326 16.6272 11.3466 16.6272C10.8605 16.6272 10.4666 16.2332 10.4666 15.7472ZM11.0532 15.7472C11.0532 15.9092 11.1845 16.0405 11.3466 16.0405C11.5086 16.0405 11.6399 15.9092 11.6399 15.7472C11.6399 15.5852 11.5086 15.4538 11.3466 15.4538C11.1845 15.4538 11.0532 15.5852 11.0532 15.7472Z" fill="white"/>
<path fill-rule="evenodd" clip-rule="evenodd" d="M12.8132 15.7472C12.8132 15.2612 13.2072 14.8672 13.6932 14.8672C14.1792 14.8672 14.5732 15.2612 14.5732 15.7472C14.5732 16.2332 14.1792 16.6272 13.6932 16.6272C13.2072 16.6272 12.8132 16.2332 12.8132 15.7472ZM13.3999 15.7472C13.3999 15.9092 13.5312 16.0405 13.6932 16.0405C13.8552 16.0405 13.9866 15.9092 13.9866 15.7472C13.9866 15.5852 13.8552 15.4538 13.6932 15.4538C13.5312 15.4538 13.3999 15.5852 13.3999 15.7472Z" fill="white"/>
<path fill-rule="evenodd" clip-rule="evenodd" d="M5.77319 15.7472C5.77319 15.2612 6.16718 14.8672 6.65319 14.8672C7.1392 14.8672 7.53319 15.2612 7.53319 15.7472C7.53319 16.2332 7.1392 16.6272 6.65319 16.6272C6.16718 16.6272 5.77319 16.2332 5.77319 15.7472ZM6.35986 15.7472C6.35986 15.9092 6.49119 16.0405 6.65319 16.0405C6.8152 16.0405 6.94653 15.9092 6.94653 15.7472C6.94653 15.5852 6.8152 15.4538 6.65319 15.4538C6.49119 15.4538 6.35986 15.5852 6.35986 15.7472Z" fill="white"/>
<path fill-rule="evenodd" clip-rule="evenodd" d="M3.42651 15.7472C3.42651 15.2612 3.8205 14.8672 4.30651 14.8672C4.79252 14.8672 5.18651 15.2612 5.18651 15.7472C5.18651 16.2332 4.79252 16.6272 4.30651 16.6272C3.8205 16.6272 3.42651 16.2332 3.42651 15.7472ZM4.01318 15.7472C4.01318 15.9092 4.14451 16.0405 4.30651 16.0405C4.46852 16.0405 4.59985 15.9092 4.59985 15.7472C4.59985 15.5852 4.46852 15.4538 4.30651 15.4538C4.14451 15.4538 4.01318 15.5852 4.01318 15.7472Z" fill="white"/>
</svg>
