<svg width="17" height="16" viewBox="0 0 17 16" fill="none" xmlns="http://www.w3.org/2000/svg">
<path fill-rule="evenodd" clip-rule="evenodd" d="M13.2755 0.506199C13.272 0.23082 13.4807 0.00443552 13.742 4.30019e-05C13.8699 -0.00172409 13.993 0.0510352 14.0835 0.146344C14.1739 0.241652 14.224 0.371424 14.2223 0.506199V2.006H15.6455C15.8209 1.99584 15.9872 2.08865 16.0777 2.24719C16.1683 2.40574 16.1683 2.60405 16.0777 2.76259C15.9872 2.92113 15.8209 3.01394 15.6455 3.00379H14.2223V4.50358C14.2319 4.68836 14.1439 4.86361 13.9934 4.95906C13.843 5.0545 13.6548 5.0545 13.5043 4.95906C13.3539 4.86361 13.2658 4.68836 13.2755 4.50358V3.00379H11.8522C11.5947 3.01109 11.3788 2.80036 11.3659 2.52922C11.3531 2.25808 11.5481 2.02575 11.805 2.006C11.8207 2.00517 11.8365 2.00517 11.8522 2.006H13.2755V0.506199ZM3.31886 5.50998C3.31888 3.5845 4.81054 2.01251 6.63773 2.01251C8.46492 2.01251 9.95658 3.5845 9.95659 5.50998C9.95658 7.43557 8.46492 9.00745 6.63773 9.00745C4.81054 9.00745 3.31888 7.43557 3.31886 5.50998ZM6.63773 3.01205C7.95249 3.01205 9.00777 4.12414 9.00779 5.50964C9.00777 6.89526 7.95249 8.00723 6.63773 8.00723C5.32296 8.00723 4.26768 6.89526 4.26767 5.50964C4.26768 4.12414 5.32296 3.01205 6.63773 3.01205ZM0 16.0003C0 12.6388 3.00806 10.0052 6.63773 10.0052C10.2674 10.0052 13.2735 12.6388 13.2735 16.0003H12.3267C12.3267 13.2727 9.83681 11.0051 6.63773 11.0051C3.43865 11.0051 0.94881 13.2727 0.94881 16.0003H0Z" fill="white"/>
</svg>
