<svg width="17" height="16" viewBox="0 0 17 16" fill="none" xmlns="http://www.w3.org/2000/svg">
<path fill-rule="evenodd" clip-rule="evenodd" d="M0.807283 15.9994H15.3384C15.7835 15.9994 16.1457 15.4985 16.1457 14.8831V11.9063C16.1457 11.2909 15.7835 10.79 15.3386 10.79H0.807283C0.362201 10.79 0 11.2909 0 11.9063V14.8831C0 15.4985 0.362201 15.9994 0.807283 15.9994ZM0.807283 11.5349H15.3386C15.4869 11.5349 15.6075 11.702 15.6075 11.907V14.8838C15.6075 15.0888 15.4869 15.2559 15.3384 15.2559H0.807283C0.659012 15.2559 0.538189 15.0888 0.538189 14.8838V11.907C0.538189 11.702 0.658743 11.5349 0.807283 11.5349Z" fill="white"/>
<path d="M0.398855 11.7999C0.367371 11.7999 0.335618 11.7921 0.304403 11.7761C0.165282 11.7043 0.0947788 11.49 0.146714 11.2972L3.00772 0.724844C3.12505 0.291352 3.42886 0 3.76388 0H12.3819C12.7169 0 13.0207 0.291352 13.1378 0.725216L15.9988 11.2969C16.051 11.4896 15.9805 11.7039 15.8411 11.7757C15.7025 11.8487 15.5467 11.7501 15.4948 11.5577L12.6338 0.986056C12.5947 0.840938 12.4936 0.744193 12.3819 0.744193H3.76388C3.65221 0.744193 3.55103 0.84131 3.51174 0.986056L0.650997 11.5581C0.610363 11.7076 0.507839 11.7999 0.398855 11.7999Z" fill="white"/>
<path fill-rule="evenodd" clip-rule="evenodd" d="M13.4546 14.5119H14.531C14.6798 14.5119 14.8001 14.3452 14.8001 14.1398V12.6514C14.8001 12.446 14.6798 12.2793 14.531 12.2793H13.4546C13.3058 12.2793 13.1855 12.446 13.1855 12.6514V14.1398C13.1855 14.3452 13.3058 14.5119 13.4546 14.5119ZM14.2619 13.7681H13.7237V13.0239H14.2619V13.7681Z" fill="white"/>
<path fill-rule="evenodd" clip-rule="evenodd" d="M11.0328 14.5119H12.1091C12.2577 14.5119 12.3782 14.3452 12.3782 14.1398V12.6514C12.3782 12.446 12.2577 12.2793 12.1091 12.2793H11.0328C10.8842 12.2793 10.7637 12.446 10.7637 12.6514V14.1398C10.7637 14.3452 10.8842 14.5119 11.0328 14.5119ZM11.8401 13.7681H11.3019V13.0239H11.8401V13.7681Z" fill="white"/>
<path d="M2.96008 13.7676H1.34551C1.19697 13.7676 1.07642 13.6009 1.07642 13.3955C1.07642 13.1901 1.19697 13.0234 1.34551 13.0234H2.96008C3.10862 13.0234 3.22917 13.1901 3.22917 13.3955C3.22917 13.6009 3.10862 13.7676 2.96008 13.7676Z" fill="white"/>
</svg>
