<svg width="17" height="16" viewBox="0 0 17 16" fill="none" xmlns="http://www.w3.org/2000/svg">
<path fill-rule="evenodd" clip-rule="evenodd" d="M0.573635 16.0004H15.5738C15.7284 16.0004 15.8737 15.9361 15.9817 15.8155C16.0878 15.699 16.1474 15.5443 16.1456 15.3795V11.5056C16.1456 11.164 15.8886 10.8867 15.5719 10.8867H0.573635C0.257018 10.8867 0 11.164 0 11.5056V15.3815C0 15.7231 0.257018 16.0004 0.573635 16.0004ZM0.558735 11.5054C0.558735 11.4974 0.566185 11.4893 0.573635 11.4893H15.5719C15.5794 11.4893 15.5868 11.4974 15.5868 11.5054V15.3813V15.3854C15.5868 15.3874 15.5868 15.3894 15.5831 15.3934C15.5794 15.3974 15.5757 15.3974 15.5738 15.3974H0.573635C0.566185 15.3974 0.558735 15.3894 0.558735 15.3813V11.5054Z" fill="white"/>
<path d="M5.89084 9.0502L5.49414 8.62423C6.92823 7.07708 9.26374 7.07708 10.6978 8.62423L10.303 9.0502C9.0868 7.73814 7.10702 7.73814 5.89084 9.0502Z" fill="white"/>
<path d="M1.00193 3.77547L0.605225 3.3495C1.61653 2.25845 2.79547 1.41454 4.11035 0.837876C5.38055 0.283311 6.72151 0 8.09786 0C9.47421 0 10.8152 0.281301 12.0835 0.837876C13.3984 1.41254 14.5773 2.25845 15.5868 3.3495L15.1919 3.77547C13.2978 1.73 10.7779 0.604798 8.096 0.604798C5.41779 0.604798 2.89604 1.73 1.00193 3.77547Z" fill="white"/>
<path d="M12.6422 6.52579C11.4279 5.21573 9.815 4.49439 8.09782 4.49439C6.38064 4.49439 4.7659 5.21573 3.55344 6.52579L3.15674 6.09982C3.8235 5.38049 4.60014 4.82391 5.46804 4.44416C6.30428 4.07847 7.18894 3.8916 8.09782 3.8916C9.00483 3.8916 9.8895 4.07646 10.7276 4.44416C11.5936 4.82391 12.3721 5.38049 13.0389 6.09982L12.6422 6.52579Z" fill="white"/>
<path fill-rule="evenodd" clip-rule="evenodd" d="M1.76367 13.4447C1.76367 13.8948 2.10264 14.2605 2.51983 14.2605C2.93702 14.2605 3.27598 13.8948 3.27598 13.4447C3.27598 12.9946 2.93702 12.6289 2.51983 12.6289C2.10264 12.6289 1.76367 12.9946 1.76367 13.4447ZM2.32241 13.4445C2.32241 13.328 2.41181 13.2315 2.51983 13.2315C2.62972 13.2315 2.71725 13.328 2.71725 13.4445C2.71725 13.5611 2.62785 13.6575 2.51983 13.6575C2.41181 13.6575 2.32241 13.5611 2.32241 13.4445Z" fill="white"/>
<path fill-rule="evenodd" clip-rule="evenodd" d="M4.30591 13.4447C4.30591 13.8948 4.64487 14.2605 5.06206 14.2605C5.47925 14.2605 5.81821 13.8948 5.81821 13.4447C5.81821 12.9946 5.47925 12.6289 5.06206 12.6289C4.64487 12.6289 4.30591 12.9946 4.30591 13.4447ZM4.86464 13.4445C4.86464 13.328 4.95404 13.2315 5.06206 13.2315C5.17195 13.2315 5.25948 13.328 5.25948 13.4445C5.25948 13.5611 5.17009 13.6575 5.06206 13.6575C4.95404 13.6575 4.86464 13.5611 4.86464 13.4445Z" fill="white"/>
<rect x="11.929" y="13.165" width="2.17907" height="0.602783" fill="white"/>
</svg>
