<svg width="60" height="60" viewBox="0 0 60 60" fill="none" xmlns="http://www.w3.org/2000/svg">
<path fill-rule="evenodd" clip-rule="evenodd" d="M56.9772 34.6672H47.0812V18.4403C47.0812 16.5397 45.5458 15 43.6505 15C41.7553 15 40.2199 16.5397 40.2199 18.4403V34.6672H2.9988C1.34346 34.6672 0 36.0144 0 37.6744V52.7706C0 54.4306 1.34346 55.7779 2.9988 55.7779H8.09676V58.0032C8.09676 59.0978 8.98441 60 10.088 60H15.7857C16.8772 60 17.7769 59.1099 17.7769 58.0032V55.7779H42.2231V58.0032C42.2231 59.0978 43.1108 60 44.2143 60H49.912C51.0036 60 51.9032 59.1099 51.9032 58.0032V55.7779H57.0012C58.6565 55.7779 60 54.4306 60 52.7706V37.6744C59.976 36.0144 58.6325 34.6672 56.9772 34.6672ZM42.6189 18.44C42.6189 17.8747 43.0748 17.4055 43.6505 17.4055C44.2263 17.4055 44.6821 17.8626 44.6821 18.44V34.667H42.6189V18.44ZM10.4958 57.5944H15.3659V55.778H10.4958V57.5944ZM49.4803 57.5944H44.6102V55.778H49.4803V57.5944ZM56.9773 53.372C57.3132 53.372 57.5771 53.1074 57.5771 52.7706V37.6744C57.5771 37.3375 57.3132 37.0729 56.9773 37.0729H45.8817H41.4195H2.9989C2.66303 37.0729 2.39914 37.3375 2.39914 37.6744V52.7706C2.39914 53.1074 2.66303 53.372 2.9989 53.372H9.29638H16.5655H43.4107H50.6798H56.9773Z" fill="black"/>
<path fill-rule="evenodd" clip-rule="evenodd" d="M46.875 45.4688C46.875 43.137 48.774 41.25 51.0938 41.25C53.4255 41.25 55.3125 43.137 55.3125 45.4688C55.3125 47.8005 53.4255 49.6875 51.0938 49.6875C48.762 49.6875 46.875 47.8005 46.875 45.4688ZM49.2789 45.4686C49.2789 46.4662 50.0963 47.2835 51.0938 47.2835C52.0914 47.2835 52.9088 46.4662 52.9088 45.4686C52.9088 44.471 52.0914 43.6537 51.0938 43.6537C50.0963 43.6537 49.2789 44.471 49.2789 45.4686Z" fill="black"/>
<path fill-rule="evenodd" clip-rule="evenodd" d="M36.5625 45.4688C36.5625 43.137 38.4615 41.25 40.7812 41.25C43.113 41.25 45 43.137 45 45.4688C45 47.8005 43.113 49.6875 40.7812 49.6875C38.4495 49.6875 36.5625 47.8005 36.5625 45.4688ZM38.9664 45.4686C38.9664 46.4662 39.7838 47.2835 40.7813 47.2835C41.7789 47.2835 42.5963 46.4662 42.5963 45.4686C42.5963 44.471 41.7789 43.6537 40.7813 43.6537C39.7838 43.6537 38.9664 44.471 38.9664 45.4686Z" fill="black"/>
<path fill-rule="evenodd" clip-rule="evenodd" d="M26.25 45.4688C26.25 43.137 28.149 41.25 30.4688 41.25C32.8005 41.25 34.6875 43.137 34.6875 45.4688C34.6875 47.8005 32.8005 49.6875 30.4688 49.6875C28.137 49.6875 26.25 47.8005 26.25 45.4688ZM28.6539 45.4686C28.6539 46.4662 29.4713 47.2835 30.4688 47.2835C31.4785 47.2835 32.2838 46.4662 32.2838 45.4686C32.2838 44.471 31.4664 43.6537 30.4688 43.6537C29.4713 43.6537 28.6539 44.471 28.6539 45.4686Z" fill="black"/>
<path d="M55.8958 7.12896C56.3681 6.63425 56.3681 5.83509 55.8958 5.34038C52.6145 1.90275 48.2434 0 43.5938 0C38.9441 0 34.573 1.89006 31.2917 5.34038C30.8194 5.83509 30.8194 6.63425 31.2917 7.12896C31.5338 7.38266 31.8365 7.49683 32.1514 7.49683C32.4662 7.49683 32.7689 7.36998 33.0111 7.12896C35.8444 4.16068 39.598 2.537 43.6059 2.537C47.6137 2.537 51.3673 4.17336 54.2007 7.12896C54.6608 7.62368 55.4236 7.62368 55.8958 7.12896Z" fill="black"/>
<path d="M51.2873 11.247C51.6018 11.247 51.9042 11.1254 52.1462 10.8944C52.6179 10.4204 52.6179 9.65458 52.1462 9.18051C47.4284 4.43983 39.7591 4.43983 35.0413 9.18051C34.5696 9.65458 34.5696 10.4204 35.0413 10.8944C35.5131 11.3685 36.2752 11.3685 36.747 10.8944C40.5212 7.1019 46.6542 7.1019 50.4284 10.8944C50.6704 11.1254 50.9849 11.247 51.2873 11.247Z" fill="black"/>
<path d="M38.7905 12.1581C38.3198 12.5944 38.3198 13.2991 38.7905 13.7353C39.0319 13.959 39.3336 14.0597 39.6474 14.0597C39.9611 14.0597 40.2629 13.9478 40.5042 13.7353C42.1576 12.2029 45.042 12.2029 46.6953 13.7353C47.166 14.1716 47.9263 14.1716 48.397 13.7353C48.8677 13.2991 48.8677 12.5944 48.397 12.1581C47.1177 10.9725 45.404 10.3125 43.5938 10.3125C41.7714 10.3237 40.0698 10.9725 38.7905 12.1581Z" fill="black"/>
</svg>
