<svg width="18" height="16" viewBox="0 0 18 16" fill="none" xmlns="http://www.w3.org/2000/svg">
<path d="M14.3723 5.9186C14.6617 5.6339 15.1291 5.6339 15.4185 5.9186L16.9023 7.38896V7.38965C17.0428 7.52751 17.1221 7.71571 17.1221 7.91147C17.1221 8.10723 17.0428 8.29543 16.9023 8.43329L15.4185 9.90365V9.90434C15.1243 10.1539 14.6853 10.1373 14.4113 9.86573C14.1372 9.59413 14.1205 9.15916 14.3723 8.86758L14.5949 8.64699H6.73726C6.32754 8.64699 5.99504 8.31749 5.99504 7.91146C5.99504 7.50544 6.32754 7.17593 6.73726 7.17593H14.5949L14.38 6.96293C14.2381 6.82575 14.1581 6.63826 14.1567 6.44249C14.1553 6.24602 14.2325 6.05783 14.3723 5.91858L14.3723 5.9186Z" fill="white" stroke="#4A4856" stroke-width="0.5"/>
<path d="M11.9314 9.38212C12.3411 9.38212 12.6729 9.71163 12.6729 10.1177V13.0591C12.6729 14.2771 11.6768 15.2649 10.4469 15.2649H3.02754C1.79771 15.2649 0.801581 14.2771 0.801581 13.0591V2.76448C0.801581 1.54642 1.79771 0.558594 3.02754 0.558594H10.4469C11.6768 0.558594 12.6729 1.54642 12.6729 2.76448V5.70589C12.6729 6.11191 12.3411 6.44142 11.9314 6.44142C11.5217 6.44142 11.1892 6.11191 11.1892 5.70589V2.76448C11.1892 2.35845 10.8567 2.02963 10.4469 2.02963H3.02753C2.83066 2.02963 2.64146 2.10684 2.50234 2.24472C2.36323 2.38259 2.2853 2.56939 2.2853 2.76448V13.0591C2.2853 13.2542 2.36321 13.441 2.50234 13.5788C2.64147 13.7167 2.83068 13.7939 3.02753 13.7939H10.4469C10.8567 13.7939 11.1892 13.4651 11.1892 13.0591V10.1177C11.1892 9.92256 11.2671 9.73575 11.4062 9.59789C11.5453 9.46004 11.7345 9.38212 11.9314 9.38212Z" fill="white" stroke="#4A4856" stroke-width="0.5"/>
</svg>
